<svg width="20" height="20" viewBox="0 0 20 20" fill="none" xmlns="http://www.w3.org/2000/svg">
<path d="M10.0013 17.5836C8.95748 17.5836 7.97484 17.386 7.05339 16.9907C6.13191 16.5954 5.32662 16.0532 4.63751 15.3641C3.94841 14.675 3.40622 13.8697 3.01093 12.9482C2.61562 12.0267 2.41797 11.0441 2.41797 10.0003C2.41797 8.94796 2.61562 7.96319 3.01093 7.04599C3.40622 6.1288 3.94841 5.32564 4.63751 4.63653C5.32662 3.94744 6.13191 3.40524 7.05339 3.00995C7.97484 2.61464 8.95748 2.41699 10.0013 2.41699C11.0536 2.41699 12.0384 2.61464 12.9556 3.00995C13.8728 3.40524 14.6759 3.94744 15.3651 4.63653C16.0542 5.32564 16.5963 6.1288 16.9916 7.04599C17.3869 7.96319 17.5846 8.94796 17.5846 10.0003C17.5846 11.0441 17.3869 12.0267 16.9916 12.9482C16.5963 13.8697 16.0542 14.675 15.3651 15.3641C14.6759 16.0532 13.8728 16.5954 12.9556 16.9907C12.0384 17.386 11.0536 17.5836 10.0013 17.5836ZM10.0013 16.4618C10.3015 16.1616 10.583 15.6726 10.8458 14.9947C11.1087 14.3168 11.3106 13.5612 11.4516 12.7278H8.55095C8.70266 13.5826 8.90725 14.3489 9.16474 15.0267C9.42221 15.7046 9.70106 16.183 10.0013 16.4618ZM8.65836 16.3577C8.39448 15.941 8.15623 15.4164 7.94361 14.784C7.731 14.1515 7.56807 13.4661 7.45482 12.7278H4.10703C4.54721 13.6905 5.16875 14.4904 5.97164 15.1277C6.77454 15.765 7.67011 16.175 8.65836 16.3577ZM11.3442 16.3577C12.3324 16.175 13.228 15.765 14.0309 15.1277C14.8338 14.4904 15.4554 13.6905 15.8955 12.7278H12.5477C12.4078 13.4714 12.2315 14.1595 12.0189 14.792C11.8063 15.4245 11.5814 15.9464 11.3442 16.3577ZM12.9997 11.6446H16.6183C16.677 11.3486 16.719 11.0658 16.7441 10.796C16.7692 10.5262 16.7818 10.261 16.7818 10.0003C16.7818 9.73962 16.7692 9.47092 16.7441 9.1942C16.719 8.91749 16.677 8.63811 16.6183 8.35605H12.9997C13.0168 8.62529 13.0248 8.90574 13.0237 9.19741C13.0227 9.48908 13.0221 9.7706 13.0221 10.042C13.0221 10.3133 13.0227 10.5879 13.0237 10.8657C13.0248 11.1435 13.0168 11.4031 12.9997 11.6446ZM8.45159 11.6446H11.551C11.5894 11.3347 11.6135 11.0476 11.6231 10.7832C11.6327 10.5187 11.6375 10.2578 11.6375 10.0003C11.6375 9.74282 11.6327 9.47839 11.6231 9.20703C11.6135 8.93566 11.5894 8.652 11.551 8.35605H8.45159C8.41314 8.652 8.38909 8.93566 8.37947 9.20703C8.36986 9.47839 8.36505 9.74282 8.36505 10.0003C8.36505 10.2578 8.36986 10.5222 8.37947 10.7936C8.38909 11.065 8.41314 11.3486 8.45159 11.6446ZM3.38428 11.6446H7.00289C6.98579 11.3753 6.97777 11.0949 6.97884 10.8032C6.97991 10.5115 6.98045 10.23 6.98045 9.95864C6.98045 9.68726 6.97991 9.41269 6.97884 9.13491C6.97777 8.85713 6.98579 8.59751 7.00289 8.35605H3.38428C3.32552 8.652 3.28358 8.93485 3.25847 9.20462C3.23336 9.4744 3.2208 9.73962 3.2208 10.0003C3.2208 10.261 3.23336 10.5262 3.25847 10.796C3.28358 11.0658 3.32552 11.3486 3.38428 11.6446ZM12.5477 7.27276H15.8955C15.45 6.29946 14.8325 5.4995 14.0429 4.87289C13.2534 4.24629 12.3538 3.83363 11.3442 3.63491C11.6081 4.07828 11.8437 4.61221 12.0509 5.23668C12.2582 5.86115 12.4238 6.53985 12.5477 7.27276ZM8.55095 7.27276H11.4516C11.2999 6.4234 11.0913 5.6531 10.8258 4.96185C10.5603 4.27061 10.2855 3.79625 10.0013 3.53876C9.71709 3.79625 9.44225 4.27061 9.17676 4.96185C8.91126 5.6531 8.70266 6.4234 8.55095 7.27276ZM4.10703 7.27276H7.45482C7.57875 6.53985 7.74436 5.86115 7.95164 5.23668C8.1589 4.61221 8.39448 4.07828 8.65836 3.63491C7.64341 3.83363 6.74249 4.24763 5.95561 4.87691C5.16875 5.50619 4.55256 6.3048 4.10703 7.27276Z" fill="black"/>
</svg>
