<svg width="74" height="56" viewBox="0 0 74 56" fill="none" xmlns="http://www.w3.org/2000/svg">
<g clip-path="url(#clip0_44_5177)">
<path d="M4.26969 26.4047H8.55143V25.4115C8.55143 24.0874 8.81641 22.8234 9.29818 21.6678C9.79801 20.47 10.5267 19.3866 11.436 18.4838C12.3394 17.5809 13.4233 16.8466 14.6217 16.3471C15.778 15.8655 17.0426 15.6007 18.3675 15.6007H35.4041V15.5164V9.41928C35.1271 9.31696 34.8621 9.19057 34.6092 9.04611C34.2539 8.83545 33.9287 8.58265 33.6396 8.29375C33.194 7.84835 32.8327 7.31266 32.5858 6.71679C32.3509 6.14499 32.2184 5.51301 32.2184 4.86297C32.2184 4.2069 32.3509 3.58094 32.5858 3.00914C32.8327 2.41327 33.194 1.87758 33.6396 1.43218C34.0853 0.986783 34.6213 0.625648 35.2174 0.378873C35.7896 0.138116 36.4219 0.0117188 37.0723 0.0117188C37.7227 0.0117188 38.355 0.144135 38.9271 0.378873C39.5233 0.625648 40.0592 0.986783 40.5049 1.43218C40.9505 1.87758 41.3119 2.41327 41.5588 3.00914C41.7936 3.58094 41.9261 4.21292 41.9261 4.86297C41.9261 5.51903 41.7936 6.14499 41.5588 6.71679C41.3119 7.31266 40.9505 7.84835 40.5049 8.29375L40.4808 8.31782C40.1978 8.59469 39.8786 8.84147 39.5353 9.04611C39.2824 9.19658 39.0174 9.32298 38.7404 9.41928V15.5164V15.6007H55.777C57.1019 15.6007 58.3665 15.8655 59.5228 16.3471C60.7272 16.8466 61.8052 17.5749 62.7085 18.4838C63.6118 19.3866 64.3465 20.47 64.8464 21.6678C65.3281 22.8234 65.5931 24.0874 65.5931 25.4115V26.4047H69.7243C70.2964 26.4047 70.8504 26.519 71.3563 26.7297C71.8802 26.9464 72.3499 27.2654 72.7414 27.6566L72.7655 27.6807C73.1509 28.0719 73.458 28.5293 73.6688 29.041C73.8796 29.5465 73.994 30.0943 73.994 30.6721V42.0599C73.994 42.6317 73.8796 43.1854 73.6688 43.691C73.452 44.2086 73.1328 44.6841 72.7414 45.0753C71.9705 45.8458 70.8986 46.3273 69.7243 46.3273H65.5871C65.569 47.5973 65.304 48.8191 64.8403 49.9326C64.3405 51.1364 63.6118 52.2138 62.7025 53.1166C61.7992 54.0195 60.7152 54.7538 59.5168 55.2533C58.3605 55.7349 57.0959 55.9997 55.771 55.9997H18.3675C17.0426 55.9997 15.778 55.7349 14.6217 55.2533C13.4173 54.7538 12.3394 54.0255 11.436 53.1166C10.5327 52.2138 9.79801 51.1304 9.29818 49.9326C8.83447 48.8191 8.5695 47.5973 8.55143 46.3273H4.26969C3.69759 46.3273 3.14355 46.2129 2.6377 46.0023C2.11377 45.7856 1.64404 45.4666 1.2526 45.0753L1.22852 45.0513C0.843099 44.66 0.53597 44.2026 0.325195 43.691C0.114421 43.1854 0 42.6317 0 42.0599V30.6721C0 30.1003 0.114421 29.5465 0.325195 29.041C0.541992 28.5173 0.861165 28.0478 1.2526 27.6566C1.64404 27.2654 2.11377 26.9464 2.6377 26.7297C3.14355 26.519 3.69157 26.4047 4.26969 26.4047ZM28.304 44.7202C28.2197 44.654 28.1475 44.5818 28.0812 44.4975C27.8825 44.2568 27.7801 43.9799 27.7741 43.697C27.7681 43.4141 27.8584 43.1312 28.0451 42.8845C28.1113 42.8002 28.1836 42.722 28.2739 42.6497C28.5871 42.3909 29.0026 42.2525 29.4121 42.2465C29.8216 42.2404 30.2311 42.3608 30.5563 42.6076C31.6764 43.4683 32.7845 44.0943 33.8805 44.5096C34.9645 44.9189 36.0365 45.1115 37.0964 45.0994C38.1623 45.0874 39.2402 44.8647 40.3423 44.4494C41.4564 44.0281 42.5765 43.3961 43.7147 42.5835C44.0519 42.3428 44.4674 42.2344 44.877 42.2525C45.2865 42.2705 45.696 42.415 46.0031 42.6858C46.0814 42.7581 46.1536 42.8363 46.2199 42.9266C46.4006 43.1794 46.4849 43.4683 46.4668 43.7512C46.4487 44.0341 46.3343 44.3109 46.1296 44.5457C46.0573 44.6239 45.973 44.7022 45.8766 44.7684C44.4494 45.7976 43.0161 46.5801 41.5648 47.1158C40.1074 47.6514 38.632 47.9343 37.1385 47.9524C35.639 47.9704 34.1576 47.7177 32.6821 47.182C31.2188 46.6523 29.7614 45.8398 28.3281 44.7383L28.304 44.7202ZM24.5522 26.3144C24.9136 26.3144 25.2749 26.3505 25.6182 26.4227C25.9674 26.495 26.3107 26.5973 26.6419 26.7357C26.9792 26.8741 27.2983 27.0427 27.5934 27.2413C27.8825 27.4339 28.1535 27.6506 28.3944 27.8913L28.4305 27.9214C28.6834 28.1742 28.9123 28.4511 29.111 28.752L29.123 28.7701C29.3158 29.059 29.4844 29.372 29.6169 29.703C29.7554 30.0341 29.8577 30.3772 29.93 30.7262C29.9963 31.0753 30.0384 31.4305 30.0384 31.7916C30.0384 32.1527 30.0023 32.5139 29.93 32.8569C29.8577 33.206 29.7554 33.5491 29.6169 33.8862C29.4784 34.2232 29.3097 34.5422 29.111 34.8372C28.9063 35.1441 28.6774 35.421 28.4305 35.6678C27.9307 36.1673 27.3224 36.5766 26.6419 36.8535C26.3107 36.9919 25.9674 37.0943 25.6121 37.1665C25.2629 37.2327 24.9076 37.2688 24.5462 37.2688C24.1849 37.2688 23.8236 37.2327 23.4803 37.1665C23.131 37.0943 22.7878 36.9919 22.4505 36.8535C22.1133 36.7151 21.7941 36.5465 21.499 36.3479C21.1919 36.1433 20.9149 35.9146 20.668 35.6678C20.415 35.415 20.1862 35.1381 19.9875 34.8372L19.9754 34.8191C19.7827 34.5302 19.6141 34.2172 19.4816 33.8862C19.3431 33.5551 19.2407 33.2121 19.1685 32.863C19.1022 32.5139 19.0661 32.1588 19.0661 31.7976C19.0661 31.4365 19.1022 31.0753 19.1685 30.7323C19.2407 30.3832 19.3431 30.0401 19.4816 29.7091C19.6201 29.372 19.7887 29.053 19.9875 28.7581C20.1922 28.4511 20.4211 28.1742 20.668 27.9275C20.9209 27.6747 21.1979 27.4459 21.499 27.2473L21.5171 27.2353C21.8062 27.0427 22.1193 26.8741 22.4505 26.7417C22.7817 26.6033 23.125 26.501 23.4743 26.4287C23.8296 26.3505 24.1909 26.3144 24.5522 26.3144ZM25.7326 28.9507C25.5519 28.8784 25.3592 28.8183 25.1605 28.7761C24.9678 28.74 24.763 28.7159 24.5522 28.7159C24.3415 28.7159 24.1367 28.734 23.944 28.7761C23.7393 28.8183 23.5466 28.8724 23.3719 28.9507C23.1852 29.0289 23.0106 29.1192 22.842 29.2336C22.6794 29.3419 22.5228 29.4743 22.3722 29.6248C22.2217 29.7753 22.0952 29.9318 21.9808 30.0943C21.8664 30.2628 21.776 30.4373 21.6978 30.6179C21.6255 30.7985 21.5653 30.9911 21.5231 31.1897C21.487 31.3823 21.4629 31.587 21.4629 31.7976C21.4629 32.0083 21.481 32.2129 21.5231 32.4055C21.5653 32.6102 21.6195 32.8028 21.6978 32.9773C21.776 33.1639 21.8664 33.3385 21.9808 33.501C22.0892 33.6635 22.2217 33.82 22.3722 33.9704C22.5228 34.1209 22.6794 34.2473 22.842 34.3617C23.0046 34.47 23.1852 34.5663 23.3719 34.6446L23.39 34.6566C23.5646 34.7288 23.7453 34.783 23.944 34.8191C24.1367 34.8552 24.3415 34.8793 24.5522 34.8793C24.763 34.8793 24.9678 34.8612 25.1605 34.8191C25.3652 34.777 25.5519 34.7228 25.7326 34.6506C25.9193 34.5723 26.0939 34.476 26.2625 34.3677C26.4251 34.2593 26.5817 34.1269 26.7323 33.9765C26.8828 33.826 27.0093 33.6695 27.1237 33.507C27.2381 33.3385 27.3285 33.1639 27.4067 32.9833C27.479 32.8028 27.5392 32.6102 27.5814 32.4115C27.6175 32.2189 27.6416 32.0143 27.6416 31.8036C27.6416 31.593 27.6235 31.3883 27.5814 31.1957C27.5392 30.9911 27.485 30.7985 27.4067 30.6239C27.3285 30.4373 27.2381 30.2628 27.1237 30.0943C27.0093 29.9257 26.8828 29.7692 26.7383 29.6248L26.7082 29.5947C26.5697 29.4623 26.4251 29.3419 26.2686 29.2396C26.0999 29.1192 25.9193 29.0229 25.7326 28.9507ZM49.5923 26.3144C49.9536 26.3144 50.3149 26.3505 50.6582 26.4227C51.0075 26.495 51.3507 26.5973 51.682 26.7357C52.0192 26.8741 52.3384 27.0427 52.6335 27.2413C52.9165 27.4339 53.1815 27.6446 53.4224 27.8853C53.4344 27.8974 53.4525 27.9094 53.4645 27.9214C53.7174 28.1742 53.9463 28.4511 54.145 28.752L54.1571 28.7701C54.3498 29.059 54.5184 29.372 54.6509 29.703C54.7894 30.0341 54.8918 30.3772 54.964 30.7262C55.0303 31.0753 55.0664 31.4305 55.0664 31.7916C55.0664 32.1527 55.0303 32.5139 54.964 32.8569C54.8918 33.206 54.7894 33.5491 54.6509 33.8862C54.5124 34.2232 54.3438 34.5422 54.145 34.8372C53.9403 35.1441 53.7114 35.421 53.4645 35.6678C53.2116 35.9206 52.9346 36.1493 52.6335 36.3479L52.6154 36.36C52.3203 36.5526 52.0132 36.7211 51.682 36.8535C51.3507 36.9919 51.0075 37.0943 50.6522 37.1665C50.3029 37.2327 49.9476 37.2688 49.5863 37.2688C49.2249 37.2688 48.8636 37.2327 48.5203 37.1665C48.1711 37.0943 47.8278 36.9919 47.4906 36.8535C47.1473 36.7091 46.8281 36.5405 46.5391 36.3479L46.509 36.3238C46.2199 36.1252 45.9489 35.9085 45.708 35.6678C45.4551 35.415 45.2262 35.1381 45.0275 34.8372L45.0155 34.8191C44.8228 34.5302 44.6541 34.2172 44.5216 33.8862C44.3831 33.5551 44.2808 33.2121 44.2085 32.863C44.1423 32.5139 44.1001 32.1588 44.1001 31.7976C44.1001 31.4365 44.1362 31.0753 44.2085 30.7323C44.2808 30.3832 44.3831 30.0401 44.5216 29.7091C44.6602 29.372 44.8288 29.053 45.0275 28.7581C45.2323 28.4511 45.4611 28.1742 45.708 27.9275C45.9549 27.6807 46.238 27.452 46.5391 27.2473C46.8341 27.0487 47.1533 26.8802 47.4906 26.7357C47.8218 26.5973 48.165 26.495 48.5143 26.4227C48.8757 26.3505 49.231 26.3144 49.5923 26.3144ZM50.7786 28.9507C50.598 28.8784 50.4053 28.8183 50.2065 28.7761C50.0138 28.74 49.8091 28.7159 49.5983 28.7159C49.3875 28.7159 49.1828 28.734 48.9901 28.7761C48.7853 28.8183 48.5926 28.8724 48.418 28.9507C48.2313 29.0289 48.0566 29.1192 47.888 29.2336C47.7254 29.3419 47.5688 29.4743 47.4183 29.6248C47.2677 29.7753 47.1413 29.9318 47.0269 30.0943C46.9124 30.2628 46.8221 30.4373 46.7438 30.6179C46.6716 30.7985 46.6113 30.9911 46.5692 31.1897C46.533 31.3823 46.509 31.587 46.509 31.7976C46.509 32.0083 46.527 32.2129 46.5692 32.4055C46.6113 32.6102 46.6655 32.8028 46.7438 32.9773C46.8221 33.1639 46.9124 33.3385 47.0269 33.501C47.1353 33.6635 47.2677 33.82 47.4183 33.9704C47.5688 34.1209 47.7254 34.2473 47.888 34.3617C48.0506 34.47 48.2313 34.5663 48.418 34.6446L48.436 34.6566C48.6107 34.7288 48.7913 34.783 48.9901 34.8191C49.1828 34.8552 49.3875 34.8793 49.5983 34.8793C49.8091 34.8793 50.0138 34.8612 50.2065 34.8191C50.4113 34.777 50.598 34.7228 50.7786 34.6506C50.9653 34.5723 51.14 34.476 51.3086 34.3677C51.4772 34.2533 51.6338 34.1269 51.7783 33.9825C51.9289 33.832 52.0553 33.6755 52.1698 33.513C52.2842 33.3445 52.3745 33.1699 52.4528 32.9894C52.5251 32.8088 52.5853 32.6162 52.6274 32.4176C52.6636 32.225 52.6877 32.0203 52.6877 31.8097C52.6877 31.599 52.6696 31.3943 52.6274 31.2017C52.5853 30.9971 52.5311 30.8045 52.4528 30.6299C52.3745 30.4434 52.2842 30.2688 52.1698 30.1003C52.0553 29.9318 51.9289 29.7753 51.7843 29.6308L51.7542 29.6007C51.6157 29.4683 51.4712 29.3479 51.3146 29.2456C51.14 29.1192 50.9653 29.0229 50.7786 28.9507ZM10.9543 27.6084V46.1888C10.9543 47.188 11.153 48.139 11.5143 49.0117C11.8937 49.9146 12.4417 50.7331 13.1283 51.4193C13.8148 52.1054 14.6338 52.6592 15.5371 53.0324C16.4043 53.3935 17.3618 53.5921 18.3615 53.5921H55.777C56.7767 53.5921 57.7282 53.3935 58.6014 53.0324C59.5047 52.6532 60.3237 52.1054 61.0103 51.4193C61.6968 50.7331 62.2508 49.9146 62.6242 49.0117C62.9855 48.145 63.1842 47.188 63.1842 46.1888V25.4115C63.1842 24.4124 62.9855 23.4554 62.6242 22.5887C62.2448 21.6858 61.6968 20.8673 61.0103 20.1811C60.3237 19.4949 59.5047 18.9412 58.6014 18.568C57.7342 18.2069 56.7767 18.0083 55.777 18.0083H18.3675C17.3678 18.0083 16.4163 18.2069 15.5431 18.568C14.6398 18.9472 13.8208 19.4949 13.1343 20.1811C12.4478 20.8673 11.8937 21.6858 11.5203 22.5887C11.159 23.4554 10.9603 24.4124 10.9603 25.4115V27.6084H10.9543ZM8.55143 28.8062H4.26969C4.01676 28.8062 3.77588 28.8544 3.55908 28.9446C3.33024 29.041 3.12549 29.1794 2.95085 29.3539L2.92676 29.372C2.76416 29.5405 2.63167 29.7391 2.54134 29.9558C2.45101 30.1725 2.40283 30.4133 2.40283 30.6661V42.0539C2.40283 42.3066 2.45101 42.5474 2.54134 42.7641C2.6377 42.9928 2.7762 43.1974 2.95085 43.372C3.28809 43.7091 3.75179 43.9197 4.26367 43.9197H8.54541V28.8062H8.55143ZM69.7303 28.8062H65.5991V43.9197H69.7303C69.9832 43.9197 70.2241 43.8716 70.4409 43.7813C70.6698 43.685 70.8745 43.5465 71.0492 43.372C71.2238 43.1974 71.3623 42.9928 71.4587 42.7641C71.549 42.5474 71.5972 42.3066 71.5972 42.0539V30.6721C71.5972 30.4193 71.549 30.1785 71.4587 29.9618C71.3623 29.7331 71.2238 29.5285 71.0492 29.3539C70.8745 29.1794 70.6698 29.041 70.4409 28.9446C70.2241 28.8604 69.9832 28.8062 69.7303 28.8062Z" fill="#78BE21"/>
</g>
<defs>
<clipPath id="clip0_44_5177">
<rect width="74" height="56" fill="white"/>
</clipPath>
</defs>
</svg>
